<?xml version="1.0" encoding="UTF-8"?>
<svg width="130px" height="160px" viewBox="0 0 130 160" version="1.1" xmlns="http://www.w3.org/2000/svg" xmlns:xlink="http://www.w3.org/1999/xlink">
    <!-- Generator: Sketch 43 (38999) - http://www.bohemiancoding.com/sketch -->
    <title>logo</title>
    <desc>Created with Sketch.</desc>
    <defs></defs>
    <g id="Page-1" stroke="none" stroke-width="1" fill="none" fill-rule="evenodd">
        <g id="Group-17" transform="translate(3.000000, 4.000000)">
            <path d="M14.088,128.216 L15.864,128.216 L15.864,135.368 L21.336,135.368 L21.336,137.072 L15.864,137.072 L15.864,147.584 L21.912,147.584 L21.912,149.288 L7.896,149.288 L7.896,147.584 L14.088,147.584 L14.088,137.072 L8.736,137.072 L8.736,135.368 L14.088,135.368 L14.088,128.216 Z M3.72,140.072 C2.76,141.032 1.704,142.016 0.528,143 L0,141.176 C3.312,138.44 5.544,135.752 6.648,133.136 L0.576,133.136 L0.576,131.48 L4.272,131.48 C3.888,130.424 3.456,129.416 2.952,128.456 L4.608,128 C5.136,129.2 5.568,130.28 5.88,131.288 L5.376,131.48 L8.4,131.48 L8.4,132.944 C7.776,134.672 6.768,136.4 5.424,138.128 C6.816,138.92 8.088,139.856 9.288,140.936 L8.328,142.424 C7.344,141.416 6.384,140.576 5.424,139.904 L5.424,150.056 L3.72,150.056 L3.72,140.072 Z M40.888,132.944 C43.096,134.624 45.16,136.304 47.056,137.984 C48.424,136.232 49.6,134.216 50.608,131.936 L52.168,132.776 C51.088,135.224 49.84,137.36 48.4,139.184 C50.272,140.912 51.976,142.616 53.512,144.296 L52.168,145.64 C50.752,143.96 49.12,142.256 47.248,140.528 C45.136,142.784 42.712,144.512 39.952,145.712 L38.944,144.152 C41.632,143.048 43.96,141.416 45.928,139.304 C44.032,137.624 41.944,135.896 39.64,134.144 L40.888,132.944 Z M35.824,129.08 L54.88,129.08 L54.88,130.736 L37.48,130.736 L37.48,147.44 L55.576,147.44 L55.576,149.096 L35.824,149.096 L35.824,129.08 Z M76.472,135.248 C75.8,136.28 75.056,137.144 74.24,137.864 L72.944,136.688 C74.552,135.248 75.728,133.472 76.496,131.36 L78.08,131.792 C77.84,132.464 77.6,133.088 77.336,133.664 L86.912,133.664 L86.912,135.248 L81.704,135.248 L81.704,136.592 C81.68,137.312 81.632,137.984 81.536,138.608 L88.328,138.608 L88.328,140.24 L81.176,140.24 C80.84,141.392 80.336,142.376 79.712,143.24 C78.512,144.752 76.544,145.952 73.784,146.816 L72.848,145.352 C75.512,144.536 77.384,143.432 78.464,142.088 C78.848,141.512 79.184,140.912 79.424,140.24 L72.944,140.24 L72.944,138.608 L79.832,138.608 C79.928,137.96 80,137.288 80.024,136.592 L80.024,135.248 L76.472,135.248 Z M81.872,141.416 C84.224,142.472 86.384,143.792 88.352,145.328 L87.392,146.768 C85.328,145.04 83.192,143.696 81.008,142.688 L81.872,141.416 Z M69.68,128.936 L88.664,128.936 L88.664,130.568 L71.336,130.568 L71.336,147.608 L89.432,147.608 L89.432,149.288 L69.68,149.288 L69.68,128.936 Z M106.776,134.24 L112.536,134.24 L112.536,139.784 L105.48,139.784 L105.48,141.464 L112.536,141.464 L112.536,147.56 L102.576,147.56 L102.576,149.288 L123.72,149.288 L123.72,147.56 L114.288,147.56 L114.288,141.464 L121.704,141.464 L121.704,139.784 L114.288,139.784 L114.288,134.24 L122.184,134.24 L122.184,132.56 L114.288,132.56 L114.288,128.288 L112.536,128.288 L112.536,132.56 L107.4,132.56 C107.76,131.48 108.072,130.328 108.336,129.08 L106.584,128.768 C105.792,132.776 104.256,135.968 102,138.32 L103.104,139.736 C104.592,138.248 105.816,136.424 106.776,134.24 Z" id="社区医生-copy" fill="#4A4A4A"></path>
            <g id="Group-Copy" transform="translate(2.000000, 0.000000)">
                <path d="M19.9622001,62.1675557 C21.0947578,61.8795562 24.1936316,61.7139566 24.1936316,61.7139566 C24.1936316,61.7139566 24.4689111,55.0712499 24.1936316,54.8566903 C18.5466829,54.8566903 13.9449321,38.2016836 13.8251723,34.2853714 C13.3619733,19.1438017 25.2376295,10.7224586 38.018564,6.85702629 C40.985438,5.95990808 42.1602357,1.05623789 38.018564,0.00023999952 C20.8727583,1.06895786 6.91246618,15.3501293 6.91246618,34.2853714 C6.91246618,42.5562349 9.57070086,50.1418997 13.995092,56.0643679 C5.87158826,58.8505223 0,66.4215472 0,75.4280091 L0,89.1418217 C0,100.503639 2.37191526,109.713621 13.8249324,109.713621 C18.7468425,109.658661 20.7858784,106.110988 16.9670061,102.856354 C10.7390185,103.396593 6.91270617,95.9491681 6.91270617,87.4279851 L6.91270617,77.1428057 C6.91246618,69.8535403 12.488855,63.7813124 19.9622001,62.1675557 Z M106.897946,56.0641279 C111.040098,50.1416597 113.528653,42.5559949 113.528653,34.2851314 C113.528653,15.3501293 100.459239,1.06871786 84.4080712,0 C80.5308789,1.05599789 81.6305567,5.95942808 84.4080712,6.85678629 C96.3732473,10.7222186 107.490985,19.1438017 107.057306,34.2851314 C106.945226,38.2014436 102.636995,54.8564503 97.3505253,54.8564503 C97.0927658,55.0707699 97.3505253,61.7137166 97.3505253,61.7137166 C97.3505253,61.7137166 100.251639,61.8793162 101.311957,62.1673157 C108.308183,63.7810724 113.528653,69.8533003 113.528653,77.1423257 L113.528653,87.4275051 C113.528653,95.9486881 109.94666,103.396113 104.116112,102.855874 C100.540839,106.110508 102.449795,109.657941 107.057546,109.713141 C117.779284,109.713141 120,100.503159 120,89.1413417 L120,75.4275291 C119.99976,66.4215472 114.503051,58.8505223 106.897946,56.0641279 Z" id="Shape" fill="#4990E2"></path>
                <path d="M84.023112,66.3497873 C88.4475031,60.4275591 91.1057378,52.8416543 91.1057378,44.5710309 C91.1057378,25.6360287 77.1790456,10.2854194 59.99988,10.2854194 C42.8202344,10.2854194 28.8937822,25.6360287 28.8937822,44.5710309 C28.8937822,52.8416543 31.5520169,60.4275591 35.976408,66.3497873 C27.8526643,69.1364217 21.981316,76.7074466 21.981316,85.7136686 L21.981316,99.4277211 C21.981316,110.789538 31.2656975,119.99976 42.7184746,119.99976 L77.2808054,119.99976 C88.7335825,119.99976 98.018204,110.789538 98.018204,99.4277211 L98.018204,85.7136686 C98.018444,76.7074466 92.1468557,69.1361817 84.023112,66.3497873 Z M35.8064884,44.5710309 C35.8064884,29.4225012 46.6381467,17.1424457 59.99988,17.1424457 C73.3616133,17.1424457 84.1932716,29.4225012 84.1932716,44.5710309 C84.1932716,59.7198006 73.3616133,71.999856 59.99988,71.999856 C46.6381467,71.999856 35.8064884,59.7198006 35.8064884,44.5710309 Z M91.1057378,97.7136446 C91.1057378,106.234588 83.509513,113.142014 74.1392117,113.142014 L45.8607883,113.142014 C36.490487,113.142014 28.8940222,106.234588 28.8940222,97.7136446 L28.8940222,87.4282251 C28.8940222,80.1396797 34.4704111,74.0669719 41.9437561,72.4534551 C47.0379859,76.4686471 53.2597335,78.8571223 60.00012,78.8571223 C66.7402665,78.8571223 72.9620141,76.4686471 78.0562439,72.4534551 C85.5295889,74.0669719 91.1059778,80.1396797 91.1059778,87.4282251 L91.1059778,97.7136446 L91.1057378,97.7136446 Z" id="Shape" fill="#F6A623"></path>
            </g>
        </g>
    </g>
</svg>